<svg xmlns="http://www.w3.org/2000/svg" viewBox="0 0 480 270">
  <defs><linearGradient id="g" x2="1" y2="1"><stop stop-color="#ffffff"/><stop offset="1" stop-color="#f1f5f9"/></linearGradient></defs>
  <rect width="480" height="270" rx="18" fill="url(#g)"/>
  <rect x="0.5" y="0.5" width="479" height="269" rx="18" fill="none" stroke="#cbd5e1"/>
  <circle cx="420" cy="34" r="120" fill="#2563eb" opacity="0.10"/>
  <rect x="24" y="38" width="216" height="184" rx="8" fill="#ffffff" stroke="#2563eb" stroke-width="1"/>
  <rect x="24" y="38" width="216" height="6" rx="3" fill="#2563eb" opacity="0.8"/>
  <rect x="34" y="56" width="196" height="9" rx="4" fill="#94a3b8" opacity="0.6"/>
  <rect x="34" y="78" width="188" height="9" rx="4" fill="#94a3b8" opacity="0.4"/>
  <rect x="34" y="100" width="180" height="9" rx="4" fill="#94a3b8" opacity="0.3"/>
  <rect x="34" y="122" width="172" height="9" rx="4" fill="#94a3b8" opacity="0.2"/>
  <rect x="250" y="38" width="144" height="184" rx="8" fill="#ffffff" stroke="#cbd5e1" stroke-width="1"/>
  <rect x="250" y="38" width="144" height="6" rx="3" fill="#2563eb" opacity="0.3"/>
  <rect x="260" y="56" width="124" height="9" rx="4" fill="#94a3b8" opacity="0.6"/>
  <rect x="260" y="78" width="116" height="9" rx="4" fill="#94a3b8" opacity="0.4"/>
  <rect x="260" y="100" width="108" height="9" rx="4" fill="#94a3b8" opacity="0.3"/>
  <rect x="260" y="122" width="100" height="9" rx="4" fill="#94a3b8" opacity="0.2"/>
  <rect x="404" y="38" width="72" height="184" rx="8" fill="#ffffff" stroke="#cbd5e1" stroke-width="1"/>
  <rect x="404" y="38" width="72" height="6" rx="3" fill="#2563eb" opacity="0.3"/>
  <rect x="414" y="56" width="52" height="9" rx="4" fill="#94a3b8" opacity="0.6"/>
  <rect x="414" y="78" width="44" height="9" rx="4" fill="#94a3b8" opacity="0.4"/>
  <rect x="414" y="100" width="36" height="9" rx="4" fill="#94a3b8" opacity="0.3"/>
  <rect x="414" y="122" width="28" height="9" rx="4" fill="#94a3b8" opacity="0.2"/>
</svg>
