<svg xmlns="http://www.w3.org/2000/svg" viewBox="0 0 1920 1080" width="1920" height="1080" role="img" aria-label="Nyx Linux">
  <title>Nyx Linux</title>
  <defs>
    <linearGradient id="bg" x1="0" y1="0" x2="0" y2="1"><stop offset="0" stop-color="#0f172a"/><stop offset="1" stop-color="#020617"/></linearGradient>
    <linearGradient id="ink" x1="0" y1="0" x2="0" y2="1"><stop offset="0" stop-color="#cbd5e1"/><stop offset="1" stop-color="#475569"/></linearGradient>
  </defs>
  <rect width="1920" height="1080" fill="url(#bg)"/>
  <circle cx="2399.04" cy="188.19" r="0.097" fill="#94a3b8" opacity="0.22"/>
  <circle cx="2758.08" cy="302.94" r="0.062" fill="#94a3b8" opacity="0.22"/>
  <circle cx="2154.24" cy="362.61" r="0.049" fill="#94a3b8" opacity="0.22"/>
  <circle cx="2888.64" cy="133.11" r="0.042" fill="#94a3b8" opacity="0.22"/>
  <circle cx="1411.2" cy="221.4" r="0.104" fill="#94a3b8" opacity="0.42"/>
  <circle cx="1622.4" cy="356.4" r="0.066" fill="#94a3b8" opacity="0.42"/>
  <circle cx="1267.2" cy="426.6" r="0.052" fill="#94a3b8" opacity="0.42"/>
  <circle cx="1699.2" cy="156.6" r="0.045" fill="#94a3b8" opacity="0.42"/>
  <g id="mark" shape-rendering="crispEdges" opacity="0.18">
    <rect x="892.809" y="216" width="22.546" height="11.833" fill="url(#ink)"/>
    <rect x="844.909" y="230.087" width="56.866" height="11.833" fill="url(#ink)"/>
    <rect x="813.097" y="244.174" width="76.838" height="11.833" fill="url(#ink)"/>
    <rect x="788.191" y="258.261" width="91.374" height="11.833" fill="url(#ink)"/>
    <rect x="767.493" y="272.348" width="102.982" height="11.833" fill="url(#ink)"/>
    <rect x="749.755" y="286.435" width="112.767" height="11.833" fill="url(#ink)"/>
    <rect x="734.279" y="300.522" width="121.321" height="11.833" fill="url(#ink)"/>
    <rect x="720.625" y="314.609" width="129" height="11.833" fill="url(#ink)"/>
    <rect x="708.498" y="328.696" width="136.038" height="11.833" fill="url(#ink)"/>
    <rect x="697.684" y="342.783" width="142.594" height="11.833" fill="url(#ink)"/>
    <rect x="688.027" y="356.87" width="148.788" height="11.833" fill="url(#ink)"/>
    <rect x="679.408" y="370.957" width="154.709" height="11.833" fill="url(#ink)"/>
    <rect x="671.733" y="385.043" width="160.427" height="11.833" fill="url(#ink)"/>
    <rect x="664.93" y="399.13" width="166.001" height="11.833" fill="url(#ink)"/>
    <rect x="658.938" y="413.217" width="171.48" height="11.833" fill="url(#ink)"/>
    <rect x="653.71" y="427.304" width="176.907" height="11.833" fill="url(#ink)"/>
    <rect x="649.208" y="441.391" width="182.323" height="11.833" fill="url(#ink)"/>
    <rect x="645.4" y="455.478" width="187.766" height="11.833" fill="url(#ink)"/>
    <rect x="642.262" y="469.565" width="193.273" height="11.833" fill="url(#ink)"/>
    <rect x="639.773" y="483.652" width="198.885" height="11.833" fill="url(#ink)"/>
    <rect x="637.92" y="497.739" width="204.642" height="11.833" fill="url(#ink)"/>
    <rect x="636.69" y="511.826" width="210.59" height="11.833" fill="url(#ink)"/>
    <rect x="636.077" y="525.913" width="216.782" height="11.833" fill="url(#ink)"/>
    <rect x="636.077" y="540" width="223.278" height="11.833" fill="url(#ink)"/>
    <rect x="636.69" y="554.087" width="230.153" height="11.833" fill="url(#ink)"/>
    <rect x="637.92" y="568.174" width="237.498" height="11.833" fill="url(#ink)"/>
    <rect x="639.773" y="582.261" width="245.43" height="11.833" fill="url(#ink)"/>
    <rect x="642.262" y="596.348" width="254.107" height="11.833" fill="url(#ink)"/>
    <rect x="645.4" y="610.435" width="263.744" height="11.833" fill="url(#ink)"/>
    <rect x="649.208" y="624.522" width="274.654" height="11.833" fill="url(#ink)"/>
    <rect x="653.71" y="638.609" width="287.323" height="11.833" fill="url(#ink)"/>
    <rect x="658.938" y="652.696" width="302.572" height="11.833" fill="url(#ink)"/>
    <rect x="664.93" y="666.783" width="322.016" height="11.833" fill="url(#ink)"/>
    <rect x="671.733" y="680.87" width="349.831" height="11.833" fill="url(#ink)"/>
    <rect x="679.408" y="694.957" width="429.632" height="11.833" fill="url(#ink)"/>
    <rect x="688.027" y="709.043" width="543.946" height="11.833" fill="url(#ink)"/>
    <rect x="697.684" y="723.13" width="524.633" height="11.833" fill="url(#ink)"/>
    <rect x="708.498" y="737.217" width="503.005" height="11.833" fill="url(#ink)"/>
    <rect x="720.625" y="751.304" width="478.749" height="11.833" fill="url(#ink)"/>
    <rect x="734.279" y="765.391" width="451.442" height="11.833" fill="url(#ink)"/>
    <rect x="749.755" y="779.478" width="420.49" height="11.833" fill="url(#ink)"/>
    <rect x="767.493" y="793.565" width="385.015" height="11.833" fill="url(#ink)"/>
    <rect x="788.191" y="807.652" width="343.618" height="11.833" fill="url(#ink)"/>
    <rect x="813.097" y="821.739" width="293.807" height="11.833" fill="url(#ink)"/>
    <rect x="844.909" y="835.826" width="230.183" height="11.833" fill="url(#ink)"/>
    <rect x="892.809" y="849.913" width="134.381" height="11.833" fill="url(#ink)"/>
  </g>
</svg>
